<svg width="20" height="19" viewBox="0 0 20 19" fill="none" xmlns="http://www.w3.org/2000/svg">
<path fill-rule="evenodd" clip-rule="evenodd" d="M0 2.02441C0 0.919845 0.89543 0.0244141 2 0.0244141H13C16.866 0.0244141 20 3.15842 20 7.02441V13.8957C20 14.5191 19.4947 15.0244 18.8713 15.0244H17.9646C17.7219 16.7206 16.2632 18.0244 14.5 18.0244C12.7368 18.0244 11.2781 16.7206 11.0354 15.0244H7.96456C7.72194 16.7206 6.26324 18.0244 4.5 18.0244C3.05127 18.0244 1.80812 17.1442 1.27617 15.8894C0.529379 15.5994 0 14.8737 0 14.0244V10.0244V8.02441V2.02441ZM7.66318 13.0244H11.3368C11.6826 12.2966 12.2722 11.707 13 11.3612V10.0244H2V12.0749C2.63526 11.4266 3.52066 11.0244 4.5 11.0244C5.8962 11.0244 7.10145 11.8419 7.66318 13.0244ZM13 14.5244C13 15.3528 13.6716 16.0244 14.5 16.0244C15.3284 16.0244 16 15.3528 16 14.5244C16 13.696 15.3284 13.0244 14.5 13.0244C13.6716 13.0244 13 13.696 13 14.5244ZM2 8.02441H13L13 2.02441L2 2.02441V8.02441ZM15 11.0599C16.1798 11.2286 17.1698 11.9857 17.6632 13.0244H18V8.02441H15V11.0599ZM15 6.02441H17.9C17.5729 4.41309 16.4709 3.08314 15 2.44046V6.02441ZM4.5 13.0244C3.67157 13.0244 3 13.696 3 14.5244C3 15.3528 3.67157 16.0244 4.5 16.0244C5.32843 16.0244 6 15.3528 6 14.5244C6 13.696 5.32843 13.0244 4.5 13.0244Z" fill="#1E1E24"/>
</svg>
