<svg width="45" height="34" viewBox="0 0 45 34" fill="none" xmlns="http://www.w3.org/2000/svg">
<path d="M0.668778 21.2372C0.987148 22.4202 1.28773 23.4044 2.24135 24.1346C3.08862 24.7831 4.34892 25.1613 5.40749 25.1671C5.8549 25.1696 6.63309 25.1762 7.62662 25.1798L7.65406 21.1194C7.01284 21.1162 6.38814 21.113 5.80074 21.1107C5.59404 21.1099 5.39108 21.0783 5.20079 21.0129C4.47988 20.7648 4.07737 19.6611 4.76203 18.9637C5.00628 18.7149 5.24361 18.4584 5.48456 18.2058C6.04038 17.6234 6.59421 17.0389 7.15266 16.4593C7.73828 15.851 8.33015 15.2494 8.9161 14.6415C9.42782 14.1108 9.93328 13.5731 10.445 13.0424C10.9918 12.4748 11.5446 11.9138 12.0908 11.3459C12.6486 10.7656 13.1988 10.1769 13.7576 9.59726C14.7774 8.53929 15.8011 7.48583 16.8222 6.42926C17.4247 5.80585 18.0325 5.18801 18.6251 4.55419C19.2682 3.86626 20.3511 4.25379 20.5745 5.0354C20.6254 5.2134 20.6205 5.38807 20.6198 5.56484C20.5939 12.9034 20.5667 20.2423 20.5388 27.5808C20.5368 28.1298 20.6062 28.6711 20.742 29.1974C20.9319 29.9339 21.2488 30.6163 21.7361 31.1859C23.1049 32.7863 24.8002 33.4145 26.8245 32.9769C27.7339 32.7802 28.5247 32.3284 29.1891 31.6506C29.9848 30.8388 30.7677 30.0127 31.5565 29.1932C33.7117 26.9538 35.8676 24.7149 38.0229 22.4752C39.5845 20.8524 41.1406 19.224 42.7092 17.6089C43.3554 16.9431 43.915 16.2282 44.221 15.3151C44.5291 14.3955 44.6239 13.4619 44.4381 12.5078C44.1966 11.2671 43.643 10.2092 42.7045 9.38984C41.8138 8.61183 40.799 8.11799 39.6374 8.10616C38.6409 8.09637 37.639 8.11532 36.6425 8.11175L36.6337 12.2252C37.3499 12.2301 38.0602 12.2275 38.7763 12.2345C39.121 12.2379 39.4744 12.2078 39.8088 12.3219C40.5627 12.5784 40.8747 13.7174 40.2281 14.3821C39.7731 14.8497 39.3193 15.3187 38.8666 15.7888C37.9416 16.7489 37.016 17.7087 36.0933 18.6712C35.3492 19.4473 34.6111 20.2293 33.866 21.0043C32.7578 22.1571 31.6459 23.3056 30.5359 24.4563C29.5274 25.5015 28.5193 26.5471 27.5114 27.593C27.1913 27.9252 26.8727 28.2591 26.5542 28.5931C26.2828 28.8777 25.956 29.0449 25.5738 28.9846C24.8848 28.8757 24.4952 28.4055 24.4985 27.6528C24.512 24.5285 24.5245 21.4038 24.5244 18.2795C24.5246 16.0317 24.5313 13.784 24.5406 11.5362L24.5558 8.13592C24.5599 7.2452 24.5638 6.35482 24.5676 5.4641C24.569 5.0701 24.5282 4.68459 24.4506 4.29962C24.1826 2.97232 23.5184 1.91709 22.4799 1.11532C21.7709 0.568064 20.9721 0.225239 20.1047 0.119097C19.4922 0.0440492 18.87 0.0544062 18.255 0.218032C17.5166 0.414729 16.8455 0.744869 16.2612 1.24796C15.6922 1.73797 15.1959 2.31198 14.6735 2.8551C13.7687 3.7959 12.8649 4.73741 11.9602 5.67787C11.0985 6.57422 10.2361 7.46953 9.37407 8.36588C8.48884 9.28636 7.6036 10.2072 6.71837 11.1276C5.79403 12.0888 4.87034 13.0506 3.94568 14.0114C3.38789 14.5914 2.82846 15.1693 2.27133 15.75C1.94024 16.0953 1.61475 16.4424 1.34979 16.8523C0.801284 17.7011 0.532108 18.6437 0.4727 19.6522C0.44107 20.1872 0.530288 20.722 0.66845 21.2362L0.668778 21.2372Z" fill="url(#paint0_linear_137_3015)"/>
<path d="M36.6339 12.225L24.6913 12.3096L24.665 8.19332L36.6555 8.11154L36.6339 12.225Z" fill="url(#paint1_linear_137_3015)"/>
<path d="M7.27414 21.1202L20.349 20.9767L20.3753 25.093L7.62698 25.1796L7.27414 21.1202Z" fill="url(#paint2_linear_137_3015)"/>
<defs>
<linearGradient id="paint0_linear_137_3015" x1="44.6194" y1="12.6267" x2="0.573361" y2="12.0595" gradientUnits="userSpaceOnUse">
<stop stop-color="#3CDA91"/>
<stop offset="0.49" stop-color="#3676DD"/>
<stop offset="1" stop-color="#6B05FF"/>
</linearGradient>
<linearGradient id="paint1_linear_137_3015" x1="25.9135" y1="10.1504" x2="36.6818" y2="10.1595" gradientUnits="userSpaceOnUse">
<stop stop-color="#1D1D1D" stop-opacity="0"/>
<stop offset="1" stop-color="#45B5A5"/>
</linearGradient>
<linearGradient id="paint2_linear_137_3015" x1="20.6199" y1="22.8447" x2="7.2738" y2="22.8656" gradientUnits="userSpaceOnUse">
<stop stop-color="#323232" stop-opacity="0"/>
<stop offset="1" stop-color="#6427EE"/>
</linearGradient>
</defs>
</svg>
