<svg width="176" height="47" viewBox="0 0 176 47" fill="none" xmlns="http://www.w3.org/2000/svg">
<path d="M0.845342 23.4042C1.19326 24.6969 1.52176 25.7726 2.56392 26.5706C3.48984 27.2792 4.86716 27.6925 6.02401 27.699C6.51295 27.7016 7.36339 27.7089 8.44916 27.7128L8.47916 23.2754C7.77841 23.2719 7.0957 23.2685 6.45376 23.2659C6.22787 23.265 6.00607 23.2305 5.79812 23.159C5.01028 22.8879 4.57039 21.6818 5.31862 20.9196C5.58554 20.6477 5.84491 20.3674 6.10823 20.0914C6.71565 19.4549 7.32091 18.8161 7.9312 18.1826C8.57119 17.5179 9.21802 16.8604 9.85837 16.1961C10.4176 15.6161 10.97 15.0285 11.5292 14.4485C12.1268 13.8283 12.7309 13.2152 13.3278 12.5945C13.9374 11.9603 14.5387 11.317 15.1493 10.6835C16.2638 9.52734 17.3826 8.37608 18.4985 7.22141C19.1569 6.54013 19.8211 5.86492 20.4688 5.17226C21.1715 4.42046 22.355 4.84396 22.5992 5.69814C22.6548 5.89267 22.6494 6.08356 22.6487 6.27673C22.6204 14.2966 22.5906 22.3169 22.5601 30.3368C22.558 30.9367 22.6338 31.5282 22.7822 32.1034C22.9897 32.9083 23.336 33.654 23.8686 34.2765C25.3645 36.0255 27.2172 36.7121 29.4294 36.2338C30.4233 36.0189 31.2874 35.5251 32.0136 34.7844C32.8832 33.8972 33.7387 32.9944 34.6007 32.0988C36.9561 29.6516 39.3121 27.2047 41.6675 24.7571C43.3741 22.9836 45.0747 21.2041 46.7889 19.439C47.4951 18.7114 48.1067 17.9301 48.4411 16.9323C48.7778 15.9273 48.8814 14.907 48.6783 13.8643C48.4144 12.5084 47.8094 11.3523 46.7838 10.4569C45.8104 9.60663 44.7013 9.06692 43.4319 9.054C42.3429 9.0433 41.248 9.06401 40.159 9.06012L40.1494 13.5555C40.932 13.5608 41.7082 13.558 42.4909 13.5656C42.8676 13.5694 43.2538 13.5365 43.6193 13.6611C44.4432 13.9415 44.784 15.1862 44.0774 15.9126C43.5802 16.4237 43.0843 16.9362 42.5896 17.4499C41.5787 18.4992 40.5671 19.548 39.5587 20.5999C38.7456 21.448 37.9389 22.3026 37.1247 23.1496C35.9136 24.4094 34.6984 25.6646 33.4855 26.9221C32.3833 28.0644 31.2815 29.207 30.1801 30.35C29.8302 30.7131 29.4821 31.078 29.1341 31.443C28.8374 31.7541 28.4803 31.9368 28.0626 31.8709C27.3096 31.7519 26.8838 31.238 26.8875 30.4154C26.9022 27.001 26.9159 23.5863 26.9158 20.1719C26.916 17.7154 26.9233 15.259 26.9335 12.8025L26.9501 9.08653C26.9546 8.11311 26.9588 7.14007 26.963 6.16664C26.9646 5.73607 26.9199 5.31476 26.8351 4.89406C26.5423 3.44352 25.8164 2.29032 24.6814 1.41411C23.9067 0.816048 23.0337 0.441392 22.0858 0.325398C21.4163 0.243382 20.7364 0.254699 20.0643 0.43352C19.2574 0.648479 18.5239 1.00927 17.8854 1.55907C17.2636 2.09457 16.7211 2.72187 16.1503 3.31541C15.1615 4.34357 14.1738 5.37248 13.185 6.40026C12.2433 7.37983 11.3009 8.35827 10.3589 9.33784C9.39143 10.3438 8.42401 11.3501 7.45659 12.356C6.44643 13.4064 5.43699 14.4575 4.42647 15.5075C3.8169 16.1414 3.20553 16.7729 2.59668 17.4075C2.23484 17.7849 1.87914 18.1642 1.58958 18.6121C0.990146 19.5398 0.695979 20.5699 0.631056 21.672C0.596491 22.2567 0.693992 22.8411 0.84498 23.4031L0.845342 23.4042Z" fill="url(#paint0_linear_145_3179)"/>
<path d="M40.1488 13.555L27.0974 13.6475L27.0687 9.14904L40.1725 9.05966L40.1488 13.555Z" fill="url(#paint1_linear_145_3179)"/>
<path d="M8.06286 23.2764L22.3516 23.1196L22.3804 27.618L8.44847 27.7127L8.06286 23.2764Z" fill="url(#paint2_linear_145_3179)"/>
<path d="M155.942 17.9762L156.718 10.663L159.896 8.93164H166.434L169.251 10.663L168.889 14.1H165.271L165.478 12.0326H160.18L159.715 16.3482H165.633L168.45 18.0796L167.674 25.5478L164.496 27.2792H157.7L154.883 25.5478L155.245 22.1108H158.862L158.656 24.1782H164.212L164.677 19.7076H158.759L155.942 17.9762Z" fill="#1E1E24"/>
<path d="M146.539 9.06152H150.157L148.425 25.5485L145.247 27.2798H137.159L134.342 25.5485L136.073 9.06152H139.691L138.141 23.9204H144.989L146.539 9.06152Z" fill="#1E1E24"/>
<path d="M128.579 16.4781L126.201 17.7701L126.175 17.8218L128.294 19.1139L127.648 25.4192L124.47 27.1506H114.676L116.562 9.06152H126.356L129.173 10.7929L128.579 16.4781ZM119.095 19.3465L118.604 24.0496H124.16L124.651 19.3465H119.095ZM119.844 12.1625L119.431 16.2455H124.987L125.4 12.1625H119.844Z" fill="#1E1E24"/>
<path d="M104.48 27.1506L105.721 15.2118H105.669L100.346 27.1506H96.9089L94.0663 15.0568H94.0146L92.7484 27.1506H89.2598L91.1462 9.06152H95.9527L99.1054 22.3699H99.1571L105.075 9.06152H109.856L107.969 27.1506H104.48Z" fill="#1E1E24"/>
<path d="M78.9336 27.1506L80.82 9.06152H84.4378L82.5514 27.1506H78.9336Z" fill="#1E1E24"/>
<path d="M62.1859 15.4444L60.9713 27.1506H57.3535L59.24 9.06152H62.6252L69.189 20.7678H69.2406L70.481 9.06152H74.0989L72.2124 27.1506H68.8272L62.2376 15.4444H62.1859Z" fill="#1E1E24"/>
<path d="M175.429 10.7086C175.429 11.6862 174.636 12.4787 173.659 12.4787C172.681 12.4787 171.889 11.6862 171.889 10.7086C171.889 9.73096 172.681 8.93848 173.659 8.93848C174.636 8.93848 175.429 9.73096 175.429 10.7086Z" stroke="#1E1E24" stroke-width="0.287045" stroke-linecap="round" stroke-linejoin="round"/>
<path d="M173.127 10.7083H173.746M173.127 10.7083V9.82324H173.746C173.864 9.82324 173.976 9.86987 174.059 9.95286C174.142 10.0358 174.189 10.1484 174.189 10.2658C174.189 10.3831 174.142 10.4957 174.059 10.5787C173.976 10.6617 173.864 10.7083 173.746 10.7083M173.127 10.7083V11.5934M173.746 10.7083L174.189 11.5934" stroke="#1E1E24" stroke-width="0.287045" stroke-linecap="round" stroke-linejoin="round"/>
<path d="M55.5449 9.05957H59.2725L59.0968 10.7941C59.7994 11.5178 59.9996 12.3873 58.8491 13.2393L59.0968 10.7941C58.1261 9.79422 56.1964 9.07256 55.5449 9.05957Z" fill="#1E1E24"/>
<path d="M153.08 22.1035H155.415L155.926 24.528C155.957 24.6259 155.978 24.7234 155.988 24.8198L155.926 24.528C155.553 23.3505 153.73 22.1168 153.08 22.1035Z" fill="#1E1E24"/>
<path d="M164.775 46.8509C163.957 46.8509 163.197 46.7011 162.495 46.4017C161.803 46.1022 161.205 45.6876 160.698 45.1578C160.203 44.6165 159.84 43.9888 159.609 43.2747L161.562 42.4282C161.873 43.1653 162.322 43.7469 162.909 44.1731C163.497 44.5877 164.159 44.795 164.896 44.795C165.311 44.795 165.668 44.7317 165.967 44.605C166.278 44.4668 166.514 44.2825 166.675 44.0521C166.848 43.8218 166.935 43.5454 166.935 43.2229C166.935 42.8428 166.819 42.5318 166.589 42.2899C166.37 42.0366 166.036 41.8408 165.587 41.7025L163.116 40.9078C162.114 40.5969 161.36 40.1304 160.853 39.5085C160.346 38.8865 160.093 38.1552 160.093 37.3144C160.093 36.5773 160.272 35.9265 160.629 35.3622C160.997 34.7978 161.504 34.3601 162.149 34.0492C162.805 33.7267 163.554 33.5654 164.395 33.5654C165.167 33.5654 165.875 33.7036 166.52 33.9801C167.165 34.245 167.718 34.6193 168.178 35.103C168.651 35.5752 169.002 36.1338 169.232 36.7788L167.297 37.6426C167.044 36.9976 166.664 36.5024 166.157 36.1569C165.65 35.7998 165.063 35.6213 164.395 35.6213C164.003 35.6213 163.658 35.6904 163.358 35.8286C163.059 35.9553 162.823 36.1396 162.65 36.3815C162.489 36.6118 162.408 36.8882 162.408 37.2107C162.408 37.5678 162.523 37.8845 162.754 38.1609C162.984 38.4258 163.335 38.6331 163.808 38.7829L166.174 39.5257C167.199 39.8597 167.965 40.3204 168.472 40.9078C168.99 41.4952 169.25 42.2208 169.25 43.0847C169.25 43.8218 169.059 44.4725 168.679 45.0369C168.299 45.6012 167.775 46.0446 167.107 46.3671C166.439 46.6896 165.662 46.8509 164.775 46.8509Z" fill="#1E1E24"/>
<path d="M144.758 46.6433V33.7725H147.004L151.824 40.3202H150.753L155.469 33.7725H157.715V46.6433H155.348V36.4503L156.264 36.6749L151.375 43.188H151.098L146.33 36.6749L147.107 36.4503V46.6433H144.758Z" fill="#1E1E24"/>
<path d="M137.676 46.6433V35.8456H134.342V33.7725H143.325V35.8456H140.043V46.6433H137.676Z" fill="#1E1E24"/>
<defs>
<linearGradient id="paint0_linear_145_3179" x1="48.8764" y1="13.9942" x2="0.741065" y2="13.3743" gradientUnits="userSpaceOnUse">
<stop stop-color="#3CDA91"/>
<stop offset="0.49" stop-color="#3676DD"/>
<stop offset="1" stop-color="#6B05FF"/>
</linearGradient>
<linearGradient id="paint1_linear_145_3179" x1="28.4331" y1="11.2878" x2="40.2012" y2="11.2978" gradientUnits="userSpaceOnUse">
<stop stop-color="#1D1D1D" stop-opacity="0"/>
<stop offset="1" stop-color="#45B5A5"/>
</linearGradient>
<linearGradient id="paint2_linear_145_3179" x1="22.6477" y1="25.1609" x2="8.0625" y2="25.1838" gradientUnits="userSpaceOnUse">
<stop stop-color="#323232" stop-opacity="0"/>
<stop offset="1" stop-color="#6427EE"/>
</linearGradient>
</defs>
</svg>
