<svg width="19" height="24" viewBox="0 0 19 24" fill="none" xmlns="http://www.w3.org/2000/svg">
<path fill-rule="evenodd" clip-rule="evenodd" d="M9.53539 0.585938C8.27465 0.585938 7.25262 1.60797 7.25262 2.86871V3.25839C4.59275 4.19852 2.68708 6.73522 2.68708 9.71702L2.68708 11.4291L2.68708 13.8256L0.840919 16.3641C0.33591 17.0584 0.26325 17.9775 0.652866 18.7426C1.04248 19.5077 1.82847 19.9895 2.68708 19.9895H6.11123C6.11123 21.8806 7.64428 23.4136 9.53539 23.4136C11.4265 23.4136 12.9595 21.8806 12.9595 19.9895H16.3837C17.2423 19.9895 18.0283 19.5077 18.4179 18.7426C18.8075 17.9775 18.7349 17.0584 18.2299 16.3641L16.3837 13.8256L16.3837 11.4291V9.71702C16.3837 6.73522 14.478 4.19852 11.8182 3.25839V2.86871C11.8182 1.60797 10.7961 0.585938 9.53539 0.585938ZM10.6781 17.7067H10.6768H8.394H5.50972H2.68708L4.34727 15.4239L4.53324 15.1682C4.817 14.7781 4.96985 14.308 4.96985 13.8256V11.4291V9.71702C4.96985 7.19554 7.01391 5.15148 9.53539 5.15148C12.0569 5.15148 14.1009 7.19554 14.1009 9.71702L14.1009 11.4291V13.8256C14.1009 14.308 14.2538 14.7781 14.5375 15.1682L14.7235 15.4239L16.3837 17.7067H13.5611H10.6781ZM9.53539 21.1309C8.90502 21.1309 8.394 20.6199 8.394 19.9895H10.6768C10.6768 20.6199 10.1658 21.1309 9.53539 21.1309Z" fill="#1E1E24"/>
</svg>
