<svg width="19" height="21" viewBox="0 0 19 21" fill="none" xmlns="http://www.w3.org/2000/svg">
<path fill-rule="evenodd" clip-rule="evenodd" d="M7.00003 0.0244141C6.55355 0.0244141 6.16116 0.320391 6.03851 0.749693L5.2781 3.41113L2.64145 3.03446C2.19383 2.97052 1.759 3.21489 1.58088 3.63049L0.0808842 7.13049C-0.0801912 7.50634 0.00378326 7.94238 0.292922 8.23152L2.08582 10.0244L0.292922 11.8173C-0.0259481 12.1362 -0.0919483 12.629 0.131786 13.0206L2.13179 16.5206C2.33947 16.884 2.75153 17.0796 3.16443 17.0108L5.28378 16.6576L6.03851 19.2991C6.16116 19.7284 6.55355 20.0244 7.00003 20.0244H12C12.4465 20.0244 12.8389 19.7284 12.9616 19.2991L13.7163 16.6576L15.8356 17.0108C16.2485 17.0796 16.6606 16.884 16.8683 16.5206L18.8683 13.0206C19.092 12.629 19.026 12.1362 18.7071 11.8173L16.9142 10.0244L18.7071 8.23152C18.9963 7.94238 19.0802 7.50634 18.9192 7.13049L17.4192 3.63049C17.2411 3.21489 16.8062 2.97052 16.3586 3.03446L13.722 3.41113L12.9616 0.749693C12.8389 0.320391 12.4465 0.0244141 12 0.0244141H7.00003ZM6.96155 4.79914L7.75433 2.02441H11.2457L12.0385 4.79914C12.1758 5.27965 12.6467 5.58504 13.1415 5.51436L15.8828 5.12275L16.8142 7.29604L14.7929 9.31731C14.4024 9.70783 14.4024 10.341 14.7929 10.7315L16.7528 12.6914L15.4774 14.9235L13.1644 14.538C12.6628 14.4544 12.1782 14.7607 12.0385 15.2497L11.2457 18.0244H7.75433L6.96155 15.2497C6.82183 14.7607 6.33731 14.4544 5.83563 14.538L3.52269 14.9235L2.24722 12.6914L4.20714 10.7315C4.59766 10.341 4.59766 9.70783 4.20714 9.31731L2.18587 7.29604L3.11728 5.12275L5.85861 5.51436C6.35332 5.58504 6.82426 5.27965 6.96155 4.79914ZM9.50003 12.0244C8.39546 12.0244 7.50003 11.129 7.50003 10.0244C7.50003 8.91984 8.39546 8.02441 9.50003 8.02441C10.6046 8.02441 11.5 8.91984 11.5 10.0244C11.5 11.129 10.6046 12.0244 9.50003 12.0244ZM5.50003 10.0244C5.50003 7.81528 7.29089 6.02441 9.50003 6.02441C11.7092 6.02441 13.5 7.81528 13.5 10.0244C13.5 12.2336 11.7092 14.0244 9.50003 14.0244C7.29089 14.0244 5.50003 12.2336 5.50003 10.0244Z" fill="#1E1E24"/>
</svg>
